<svg xmlns="http://www.w3.org/2000/svg" viewBox="0 0 28 16"><title>car mileage</title><g id="レイヤー_2" data-name="レイヤー 2"><g id="レイヤー_1-2" data-name="レイヤー 1"><g id="car_mileage" data-name="car mileage"><path id="パス_44" data-name="パス 44" d="M22.49,4.5V2.75L20,5.25l2.49,2.5V6H28V4.5Zm3,4.25H20v1.5h5.51V12L28,9.5,25.51,7Z"/><g id="グループ_39" data-name="グループ 39"><path id="パス_12" data-name="パス 12" d="M15.92,1A1.5,1.5,0,0,0,14.5,0H3.5A1.5,1.5,0,0,0,2.08,1L0,7v8a1,1,0,0,0,1,1H2a1,1,0,0,0,1-1V14H15v1a1,1,0,0,0,1,1h1a1,1,0,0,0,1-1V7ZM3.85,2H14.14l1.08,3.11H2.77ZM16,12H2V7H16Z"/><circle id="楕円形_2" data-name="楕円形 2" cx="4.5" cy="9.5" r="1.5"/><circle id="楕円形_3" data-name="楕円形 3" cx="13.5" cy="9.5" r="1.5"/></g></g></g></g></svg>