<svg xmlns="http://www.w3.org/2000/svg" width="27" height="25" viewBox="0 0 27 25">
  <g id="car_time" transform="translate(-2948 -1189)">
    <path id="パス_40" data-name="パス 40" d="M16,1C13.61,1,8.88,2.725,8.88,8A6.85,6.85,0,0,0,16,15a7.118,7.118,0,0,0,7-7A7,7,0,0,0,16,1Zm0,12a5,5,0,1,1,5-5A5,5,0,0,1,16,13Zm.5-9H15V9l3.62,2.16.75-1.23L16.5,8.25Z" transform="translate(2952 1188)" />
    <g id="directions_car-24px" transform="translate(2948 1190)">
      <path id="パス_11" data-name="パス 11" d="M0,0H24V24H0Z" fill="none"/>
      <path id="前面オブジェクトで型抜き_7" data-name="前面オブジェクトで型抜き 7" d="M-2931-1168h-1a1,1,0,0,1-1-1v-1h-12v1a1,1,0,0,1-1,1h-1a1,1,0,0,1-1-1v-8l2.08-5.99A1.494,1.494,0,0,1-2944.5-1184h6.572a7.1,7.1,0,0,0-.071,1,7.069,7.069,0,0,0,.071,1h-6.222l-1.08,3.109h8.563a6.989,6.989,0,0,0,2.059,1.89H-2946v5h14v-4.071a7.066,7.066,0,0,0,1,.071,7.093,7.093,0,0,0,1-.071V-1169A1,1,0,0,1-2931-1168Z" transform="translate(2951 1189)" />
      <circle id="楕円形_2" data-name="楕円形 2" cx="1.5" cy="1.5" r="1.5" transform="translate(6 13)" />
      <circle id="楕円形_3" data-name="楕円形 3" cx="1.5" cy="1.5" r="1.5" transform="translate(15 13)" />
    </g>
  </g>
</svg>
