<?xml version="1.0" encoding="utf-8"?>
<!-- Generator: Adobe Illustrator 23.1.0, SVG Export Plug-In . SVG Version: 6.00 Build 0)  -->
<svg version="1.1" id="レイヤー_1" xmlns="http://www.w3.org/2000/svg" xmlns:xlink="http://www.w3.org/1999/xlink" x="0px"
	 y="0px" viewBox="0 0 30 30.8" style="enable-background:new 0 0 30 30.8;" xml:space="preserve">
<style type="text/css">
	.st0{fill:none;}
	.st1{fill:#333333;}
</style>
<g id="setting" transform="translate(-40.652 -391.333)">
	<g id="パス_18" transform="translate(34 385)">
		<g>
			<path class="st0" d="M33.2,21.8c0,0.5,0,1-0.1,1.5l3.3,2.6c0.3,0.2,0.4,0.7,0.2,1l-3.1,5.3c-0.2,0.3-0.6,0.5-0.9,0.3l-3.8-1.5
				c-0.8,0.6-1.7,1.1-2.6,1.5l-0.6,4.1c-0.1,0.4-0.4,0.7-0.8,0.7h-6.2c-0.4,0-0.7-0.3-0.8-0.6l-0.6-4.1c-0.9-0.4-1.8-0.9-2.6-1.5
				l-3.8,1.5c-0.4,0.1-0.8,0-0.9-0.3l-3.1-5.3c-0.2-0.3-0.1-0.7,0.2-1l3.3-2.6c-0.1-0.5-0.1-1-0.1-1.5c0-0.5,0-1,0.1-1.5l-3.3-2.6
				c-0.3-0.2-0.4-0.7-0.2-1l3.1-5.3c0.2-0.3,0.6-0.5,0.9-0.3l3.8,1.5c0.8-0.6,1.7-1.1,2.6-1.5L17.8,7c0.1-0.4,0.4-0.7,0.8-0.7h6.2
				c0.4,0,0.7,0.3,0.8,0.6l0.6,4.1c0.9,0.4,1.8,0.9,2.6,1.5l3.8-1.5c0.4-0.1,0.8,0,0.9,0.3l3.1,5.3c0.2,0.3,0.1,0.7-0.2,1l-3.3,2.6
				C33.2,20.7,33.2,21.2,33.2,21.8L33.2,21.8z"/>
		</g>
		<g>
			<path class="st1" d="M22.8,34.2l0.3-2.2l0.2-1.7l1.6-0.7c0.7-0.3,1.4-0.7,1.9-1.1l1.4-1.1l1.6,0.6l2,0.8l1.2-2l-1.7-1.4l-1.4-1.1
				l0.2-1.7c0.1-0.4,0.1-0.8,0.1-1.1c0-0.3,0-0.7-0.1-1.1l-0.2-1.7l1.3-1.1l1.7-1.4l-1.2-2l-2,0.8L28.2,16l-1.4-1.1
				c-0.6-0.5-1.2-0.8-1.9-1.1l-1.6-0.7l-0.2-1.7l-0.3-2.1h-2.3l-0.3,2.2L20,13.2l-1.6,0.7c-0.7,0.3-1.4,0.7-1.9,1.1L15.1,16
				l-1.6-0.6l-2-0.8l-1.2,2l1.7,1.4l1.4,1.1l-0.2,1.7c-0.1,0.4-0.1,0.8-0.1,1.1c0,0.3,0,0.7,0.1,1.1l0.2,1.7L12,25.6L10.3,27l1.2,2
				l2-0.8l1.6-0.6l1.4,1.1c0.6,0.5,1.2,0.8,1.9,1.1l1.6,0.7l0.2,1.7l0.3,2.1H22.8 M24.7,37.2h-6.2c-0.4,0-0.7-0.3-0.8-0.6l-0.6-4.1
				c-0.9-0.4-1.8-0.9-2.6-1.5l-3.8,1.5c-0.1,0-0.2,0.1-0.3,0.1c-0.3,0-0.5-0.1-0.7-0.4l-3.1-5.3c-0.2-0.3-0.1-0.7,0.2-1l3.3-2.6
				c-0.1-0.5-0.1-1-0.1-1.5s0-1,0.1-1.5l-3.3-2.6c-0.3-0.2-0.4-0.7-0.2-1l3.1-5.3c0.1-0.2,0.4-0.4,0.7-0.4c0.1,0,0.2,0,0.3,0.1
				l3.8,1.5c0.8-0.6,1.7-1.1,2.6-1.5L17.8,7c0.1-0.4,0.4-0.7,0.8-0.7h6.2c0.4,0,0.7,0.3,0.8,0.6l0.6,4.1c0.9,0.4,1.8,0.9,2.6,1.5
				l3.8-1.5c0.1,0,0.2-0.1,0.3-0.1c0.3,0,0.5,0.1,0.7,0.4l3.1,5.3c0.2,0.3,0.1,0.7-0.2,1l-3.3,2.6c0.1,0.5,0.1,1,0.1,1.5v0
				c0,0.5,0,1-0.1,1.5l3.3,2.6c0.3,0.2,0.4,0.7,0.2,1l-3.1,5.3c-0.1,0.2-0.4,0.4-0.7,0.4c-0.1,0-0.2,0-0.3-0.1l-3.8-1.5
				c-0.8,0.6-1.7,1.1-2.6,1.5l-0.6,4.1C25.4,36.9,25.1,37.2,24.7,37.2z"/>
		</g>
	</g>
	<g id="楕円形_4" transform="translate(50.037 400.996)">
		<g>
			<circle class="st0" cx="5.5" cy="5.5" r="5.5"/>
		</g>
		<g>
			<path class="st1" d="M5.5,11C2.5,11,0,8.5,0,5.5C0,2.5,2.5,0,5.5,0c3,0,5.5,2.5,5.5,5.5C11,8.5,8.5,11,5.5,11z M5.5,3
				C4.1,3,3,4.1,3,5.5C3,6.9,4.1,8,5.5,8C6.9,8,8,6.9,8,5.5C8,4.1,6.9,3,5.5,3z"/>
		</g>
	</g>
</g>
</svg>
